<?xml version="1.0" encoding="UTF-8" standalone="no"?>
<!DOCTYPE svg PUBLIC "-//W3C//DTD SVG 1.1//EN"
 "http://www.w3.org/Graphics/SVG/1.1/DTD/svg11.dtd">
<!-- Generated by graphviz version 2.43.0 (0)
 -->
<!-- Title: EventPlanner Pages: 1 -->
<svg width="2022pt" height="1018pt"
 viewBox="0.00 0.00 2022.00 1018.00" xmlns="http://www.w3.org/2000/svg" xmlns:xlink="http://www.w3.org/1999/xlink">
<g id="graph0" class="graph" transform="scale(1 1) rotate(0) translate(4 1014)">
<title>EventPlanner</title>
<polygon fill="white" stroke="transparent" points="-4,4 -4,-1014 2018,-1014 2018,4 -4,4"/>
<text text-anchor="middle" x="1007" y="-988.4" font-family="Helvetica,sans-Serif" font-size="22.00">Java Event Planner — Diagrama de Classes (SCC0504)</text>
<g id="clust1" class="cluster">
<title>cluster_lib</title>
<path fill="none" stroke="#999999" stroke-dasharray="5,2" d="M1070,-897C1070,-897 1550,-897 1550,-897 1556,-897 1562,-903 1562,-909 1562,-909 1562,-958 1562,-958 1562,-964 1556,-970 1550,-970 1550,-970 1070,-970 1070,-970 1064,-970 1058,-964 1058,-958 1058,-958 1058,-909 1058,-909 1058,-903 1064,-897 1070,-897"/>
<text text-anchor="middle" x="1310" y="-956.4" font-family="Helvetica,sans-Serif" font-size="12.00">java.lang / javax.swing (bibliotecas)</text>
</g>
<g id="clust2" class="cluster">
<title>cluster_modelo</title>
<path fill="none" stroke="#3367d6" d="M286,-8C286,-8 754,-8 754,-8 760,-8 766,-14 766,-20 766,-20 766,-361 766,-361 766,-367 760,-373 754,-373 754,-373 286,-373 286,-373 280,-373 274,-367 274,-361 274,-361 274,-20 274,-20 274,-14 280,-8 286,-8"/>
<text text-anchor="middle" x="520" y="-358.6" font-family="Helvetica,sans-Serif" font-size="13.00">modelo</text>
</g>
<g id="clust3" class="cluster">
<title>cluster_excecao</title>
<path fill="none" stroke="#d93025" d="M1193,-656C1193,-656 1895,-656 1895,-656 1901,-656 1907,-662 1907,-668 1907,-668 1907,-851.5 1907,-851.5 1907,-857.5 1901,-863.5 1895,-863.5 1895,-863.5 1193,-863.5 1193,-863.5 1187,-863.5 1181,-857.5 1181,-851.5 1181,-851.5 1181,-668 1181,-668 1181,-662 1187,-656 1193,-656"/>
<text text-anchor="middle" x="1544" y="-849.1" font-family="Helvetica,sans-Serif" font-size="13.00">excecao</text>
</g>
<g id="clust4" class="cluster">
<title>cluster_persistencia</title>
<path fill="none" stroke="#188038" d="M20,-23.5C20,-23.5 246,-23.5 246,-23.5 252,-23.5 258,-29.5 258,-35.5 258,-35.5 258,-316.5 258,-316.5 258,-322.5 252,-328.5 246,-328.5 246,-328.5 20,-328.5 20,-328.5 14,-328.5 8,-322.5 8,-316.5 8,-316.5 8,-35.5 8,-35.5 8,-29.5 14,-23.5 20,-23.5"/>
<text text-anchor="middle" x="133" y="-314.1" font-family="Helvetica,sans-Serif" font-size="13.00">persistencia</text>
</g>
<g id="clust5" class="cluster">
<title>cluster_servico</title>
<path fill="none" stroke="#9334e6" d="M494,-410C494,-410 754,-410 754,-410 760,-410 766,-416 766,-422 766,-422 766,-584 766,-584 766,-590 760,-596 754,-596 754,-596 494,-596 494,-596 488,-596 482,-590 482,-584 482,-584 482,-422 482,-422 482,-416 488,-410 494,-410"/>
<text text-anchor="middle" x="624" y="-581.6" font-family="Helvetica,sans-Serif" font-size="13.00">servico</text>
</g>
<g id="clust6" class="cluster">
<title>cluster_gui</title>
<path fill="none" stroke="#e37400" d="M786,-230.5C786,-230.5 1153,-230.5 1153,-230.5 1159,-230.5 1165,-236.5 1165,-242.5 1165,-242.5 1165,-857 1165,-857 1165,-863 1159,-869 1153,-869 1153,-869 786,-869 786,-869 780,-869 774,-863 774,-857 774,-857 774,-242.5 774,-242.5 774,-236.5 780,-230.5 786,-230.5"/>
<text text-anchor="middle" x="969.5" y="-854.6" font-family="Helvetica,sans-Serif" font-size="13.00">gui</text>
</g>
<!-- JFrame -->
<g id="node1" class="node">
<title>JFrame</title>
<polygon fill="none" stroke="black" points="1074,-909 1074,-937 1124,-937 1124,-909 1074,-909"/>
<text text-anchor="start" x="1078" y="-926" font-family="Helvetica,sans-Serif" font-style="italic" font-size="10.00">«Swing»</text>
<text text-anchor="start" x="1079" y="-916" font-family="Helvetica,sans-Serif" font-weight="bold" font-size="10.00">JFrame</text>
</g>
<!-- JanelaPrincipal -->
<g id="node18" class="node">
<title>JanelaPrincipal</title>
<polygon fill="none" stroke="black" points="798,-813.5 798,-834.5 1004,-834.5 1004,-813.5 798,-813.5"/>
<text text-anchor="start" x="858" y="-822.5" font-family="Helvetica,sans-Serif" font-weight="bold" font-size="10.00">JanelaPrincipal</text>
<polygon fill="none" stroke="black" points="798,-781.5 798,-813.5 1004,-813.5 1004,-781.5 798,-781.5"/>
<text text-anchor="start" x="803" y="-800.5" font-family="Helvetica,sans-Serif" font-size="10.00">+ diaSelecionado(dia : LocalDate) : void</text>
<text text-anchor="start" x="803" y="-789.5" font-family="Helvetica,sans-Serif" font-size="10.00">+ aoAlterarEventos() : void</text>
</g>
<!-- JFrame&#45;&gt;JanelaPrincipal -->
<g id="edge1" class="edge">
<title>JFrame&#45;&gt;JanelaPrincipal</title>
<path fill="none" stroke="black" d="M1059.85,-899.75C1029.25,-882.37 986.43,-858.04 952.97,-839.03"/>
<polygon fill="none" stroke="black" points="1058.5,-903.02 1068.93,-904.91 1061.96,-896.93 1058.5,-903.02"/>
</g>
<!-- JPanel -->
<g id="node2" class="node">
<title>JPanel</title>
<polygon fill="none" stroke="black" points="1172,-909 1172,-937 1222,-937 1222,-909 1172,-909"/>
<text text-anchor="start" x="1176" y="-926" font-family="Helvetica,sans-Serif" font-style="italic" font-size="10.00">«Swing»</text>
<text text-anchor="start" x="1179.5" y="-916" font-family="Helvetica,sans-Serif" font-weight="bold" font-size="10.00">JPanel</text>
</g>
<!-- PainelCalendario -->
<g id="node19" class="node">
<title>PainelCalendario</title>
<polygon fill="none" stroke="black" points="790,-692 790,-713 914,-713 914,-692 790,-692"/>
<text text-anchor="start" x="803.5" y="-701" font-family="Helvetica,sans-Serif" font-weight="bold" font-size="10.00">PainelCalendario</text>
<polygon fill="none" stroke="black" points="790,-671 790,-692 914,-692 914,-671 790,-671"/>
<text text-anchor="start" x="795" y="-679" font-family="Helvetica,sans-Serif" font-size="10.00">&#45; mesAtual : YearMonth</text>
<polygon fill="none" stroke="black" points="790,-650 790,-671 914,-671 914,-650 790,-650"/>
<text text-anchor="start" x="795" y="-658" font-family="Helvetica,sans-Serif" font-size="10.00">+ atualizar() : void</text>
</g>
<!-- JPanel&#45;&gt;PainelCalendario -->
<g id="edge2" class="edge">
<title>JPanel&#45;&gt;PainelCalendario</title>
<path fill="none" stroke="black" d="M1154.67,-900.8C1138.95,-892 1121.45,-881.02 1107,-869 1065.83,-834.74 1069.8,-811.49 1028,-778 1009.98,-763.56 963.18,-738.49 922.37,-717.72"/>
<polygon fill="none" stroke="black" points="1153.22,-904 1163.68,-905.73 1156.58,-897.86 1153.22,-904"/>
</g>
<!-- PainelEventosDia -->
<g id="node20" class="node">
<title>PainelEventosDia</title>
<polygon fill="none" stroke="black" points="963,-698 963,-719 1150,-719 1150,-698 963,-698"/>
<text text-anchor="start" x="1007.5" y="-707" font-family="Helvetica,sans-Serif" font-weight="bold" font-size="10.00">PainelEventosDia</text>
<polygon fill="none" stroke="black" points="963,-677 963,-698 1150,-698 1150,-677 963,-677"/>
<text text-anchor="start" x="968" y="-685" font-family="Helvetica,sans-Serif" font-size="10.00">&#45; diaAtual : LocalDate</text>
<polygon fill="none" stroke="black" points="963,-645 963,-677 1150,-677 1150,-645 963,-645"/>
<text text-anchor="start" x="968" y="-664" font-family="Helvetica,sans-Serif" font-size="10.00">+ mostrarDia(dia : LocalDate) : void</text>
<text text-anchor="start" x="968" y="-653" font-family="Helvetica,sans-Serif" font-size="10.00">+ mostrarResultados(...) : void</text>
</g>
<!-- JPanel&#45;&gt;PainelEventosDia -->
<g id="edge3" class="edge">
<title>JPanel&#45;&gt;PainelEventosDia</title>
<path fill="none" stroke="black" d="M1182.7,-895.92C1163.98,-862 1129.9,-801.06 1099,-750 1093.7,-741.25 1087.88,-731.96 1082.27,-723.17"/>
<polygon fill="none" stroke="black" points="1179.67,-897.67 1187.56,-904.74 1185.8,-894.29 1179.67,-897.67"/>
</g>
<!-- JDialog -->
<g id="node3" class="node">
<title>JDialog</title>
<polygon fill="none" stroke="black" points="1384,-909 1384,-937 1434,-937 1434,-909 1384,-909"/>
<text text-anchor="start" x="1388" y="-926" font-family="Helvetica,sans-Serif" font-style="italic" font-size="10.00">«Swing»</text>
<text text-anchor="start" x="1388.5" y="-916" font-family="Helvetica,sans-Serif" font-weight="bold" font-size="10.00">JDialog</text>
</g>
<!-- DialogoEvento -->
<g id="node21" class="node">
<title>DialogoEvento</title>
<polygon fill="none" stroke="black" points="975,-492 975,-513 1145,-513 1145,-492 975,-492"/>
<text text-anchor="start" x="1019" y="-501" font-family="Helvetica,sans-Serif" font-weight="bold" font-size="10.00">DialogoEvento</text>
<polygon fill="none" stroke="black" points="975,-471 975,-492 1145,-492 1145,-471 975,-471"/>
<text text-anchor="start" x="980" y="-479" font-family="Helvetica,sans-Serif" font-size="10.00">+ getEventoResultado() : Evento</text>
</g>
<!-- JDialog&#45;&gt;DialogoEvento -->
<g id="edge4" class="edge">
<title>JDialog&#45;&gt;DialogoEvento</title>
<path fill="none" stroke="black" d="M1447.1,-900.71C1450.71,-899.26 1454.38,-897.99 1458,-897 1507.08,-883.6 1880.14,-906.06 1915,-869 1984.43,-795.19 1980.26,-718.52 1915,-641 1818.35,-526.18 1354.21,-500.44 1153.17,-494.67"/>
<polygon fill="none" stroke="black" points="1445.46,-897.61 1437.75,-904.88 1448.31,-904.01 1445.46,-897.61"/>
</g>
<!-- JTextField -->
<g id="node4" class="node">
<title>JTextField</title>
<polygon fill="none" stroke="black" points="1482,-909 1482,-937 1546,-937 1546,-909 1482,-909"/>
<text text-anchor="start" x="1493" y="-926" font-family="Helvetica,sans-Serif" font-style="italic" font-size="10.00">«Swing»</text>
<text text-anchor="start" x="1486" y="-916" font-family="Helvetica,sans-Serif" font-weight="bold" font-size="10.00">JTextField</text>
</g>
<!-- IntField -->
<g id="node22" class="node">
<title>IntField</title>
<polygon fill="none" stroke="black" points="1047,-263.5 1047,-284.5 1127,-284.5 1127,-263.5 1047,-263.5"/>
<text text-anchor="start" x="1065" y="-272.5" font-family="Helvetica,sans-Serif" font-weight="bold" font-size="10.00">IntField</text>
<polygon fill="none" stroke="black" points="1047,-242.5 1047,-263.5 1127,-263.5 1127,-242.5 1047,-242.5"/>
<text text-anchor="start" x="1052" y="-250.5" font-family="Helvetica,sans-Serif" font-size="10.00">+ getInt() : int</text>
</g>
<!-- JTextField&#45;&gt;IntField -->
<g id="edge5" class="edge">
<title>JTextField&#45;&gt;IntField</title>
<path fill="none" stroke="black" d="M1564.15,-921.24C1667,-918.87 1897.71,-909.1 1964,-869 1993.56,-851.12 2014,-844.04 2014,-809.5 2014,-809.5 2014,-809.5 2014,-491 2014,-308.24 1325.49,-272.26 1135.21,-265.81"/>
<polygon fill="none" stroke="black" points="1563.94,-917.75 1554.02,-921.46 1564.09,-924.74 1563.94,-917.75"/>
</g>
<!-- Exception -->
<g id="node5" class="node">
<title>Exception</title>
<polygon fill="none" stroke="black" points="1270,-909 1270,-937 1336,-937 1336,-909 1270,-909"/>
<text text-anchor="start" x="1274" y="-926" font-family="Helvetica,sans-Serif" font-style="italic" font-size="10.00">«java.lang»</text>
<text text-anchor="start" x="1275" y="-916" font-family="Helvetica,sans-Serif" font-weight="bold" font-size="10.00">Exception</text>
</g>
<!-- ValidacaoException -->
<g id="node10" class="node">
<title>ValidacaoException</title>
<polygon fill="none" stroke="black" points="1365,-808.5 1365,-829.5 1548,-829.5 1548,-808.5 1365,-808.5"/>
<text text-anchor="start" x="1400.5" y="-817.5" font-family="Helvetica,sans-Serif" font-weight="bold" font-size="10.00">ValidacaoException</text>
<polygon fill="none" stroke="black" points="1365,-787.5 1365,-808.5 1548,-808.5 1548,-787.5 1365,-787.5"/>
<text text-anchor="start" x="1370" y="-795.5" font-family="Helvetica,sans-Serif" font-size="10.00">+ ValidacaoException(msg : String)</text>
</g>
<!-- Exception&#45;&gt;ValidacaoException -->
<g id="edge6" class="edge">
<title>Exception&#45;&gt;ValidacaoException</title>
<path fill="none" stroke="black" d="M1334.58,-898.78C1360.45,-879.76 1396.95,-852.92 1423.16,-833.65"/>
<polygon fill="none" stroke="black" points="1332.22,-896.17 1326.24,-904.91 1336.37,-901.81 1332.22,-896.17"/>
</g>
<!-- Evento -->
<g id="node6" class="node">
<title>Evento</title>
<polygon fill="none" stroke="black" points="517,-317.5 517,-338.5 731,-338.5 731,-317.5 517,-317.5"/>
<text text-anchor="start" x="604.5" y="-326.5" font-family="Helvetica,sans-Serif" font-weight="bold" font-size="10.00">Evento</text>
<polygon fill="none" stroke="black" points="517,-241.5 517,-317.5 731,-317.5 731,-241.5 517,-241.5"/>
<text text-anchor="start" x="522" y="-304.5" font-family="Helvetica,sans-Serif" font-size="10.00">&#45; titulo : String</text>
<text text-anchor="start" x="522" y="-293.5" font-family="Helvetica,sans-Serif" font-size="10.00">&#45; data : LocalDate</text>
<text text-anchor="start" x="522" y="-282.5" font-family="Helvetica,sans-Serif" font-size="10.00">&#45; hora : LocalTime</text>
<text text-anchor="start" x="522" y="-271.5" font-family="Helvetica,sans-Serif" font-size="10.00">&#45; local : String</text>
<text text-anchor="start" x="522" y="-260.5" font-family="Helvetica,sans-Serif" font-size="10.00">&#45; descricao : String</text>
<text text-anchor="start" x="522" y="-249.5" font-family="Helvetica,sans-Serif" font-size="10.00">&#45; participantes : Vector&lt;Participante&gt;</text>
<polygon fill="none" stroke="black" points="517,-187.5 517,-241.5 731,-241.5 731,-187.5 517,-187.5"/>
<text text-anchor="start" x="522" y="-228.5" font-family="Helvetica,sans-Serif" font-size="10.00">+ getInstanteLembrete() : LocalDateTime</text>
<text text-anchor="start" x="522" y="-217.5" font-family="Helvetica,sans-Serif" font-size="10.00">+ addParticipante(p : Participante) : void</text>
<text text-anchor="start" x="522" y="-206.5" font-family="Helvetica,sans-Serif" font-size="10.00">+ get/set...()</text>
<text text-anchor="start" x="522" y="-195.5" font-family="Helvetica,sans-Serif" font-size="10.00">+ toString() : String</text>
</g>
<!-- Participante -->
<g id="node7" class="node">
<title>Participante</title>
<polygon fill="none" stroke="black" points="476,-99.5 476,-120.5 588,-120.5 588,-99.5 476,-99.5"/>
<text text-anchor="start" x="497" y="-108.5" font-family="Helvetica,sans-Serif" font-weight="bold" font-size="10.00">Participante</text>
<polygon fill="none" stroke="black" points="476,-67.5 476,-99.5 588,-99.5 588,-67.5 476,-67.5"/>
<text text-anchor="start" x="481" y="-86.5" font-family="Helvetica,sans-Serif" font-size="10.00">&#45; nome : String</text>
<text text-anchor="start" x="481" y="-75.5" font-family="Helvetica,sans-Serif" font-size="10.00">&#45; email : String</text>
<polygon fill="none" stroke="black" points="476,-24.5 476,-67.5 588,-67.5 588,-24.5 476,-24.5"/>
<text text-anchor="start" x="481" y="-54.5" font-family="Helvetica,sans-Serif" font-size="10.00">+ getNome() : String</text>
<text text-anchor="start" x="481" y="-43.5" font-family="Helvetica,sans-Serif" font-size="10.00">+ getEmail() : String</text>
<text text-anchor="start" x="481" y="-32.5" font-family="Helvetica,sans-Serif" font-size="10.00">+ toString() : String</text>
</g>
<!-- Evento&#45;&gt;Participante -->
<g id="edge12" class="edge">
<title>Evento&#45;&gt;Participante</title>
<path fill="none" stroke="black" d="M580.48,-173.09C572.37,-156.42 564.15,-139.55 556.84,-124.54"/>
<polygon fill="black" stroke="black" points="580.53,-173.2 586.75,-176.84 585.78,-183.99 579.56,-180.34 580.53,-173.2"/>
<text text-anchor="middle" x="548.34" y="-127.34" font-family="Helvetica,sans-Serif" font-size="9.00">0..*</text>
</g>
<!-- Categoria -->
<g id="node8" class="node">
<title>Categoria</title>
<polygon fill="none" stroke="black" points="636,-94.5 636,-124.5 750,-124.5 750,-94.5 636,-94.5"/>
<text text-anchor="start" x="655.5" y="-112.5" font-family="Helvetica,sans-Serif" font-style="italic" font-size="10.00">«enumeration»</text>
<text text-anchor="start" x="665" y="-102.5" font-family="Helvetica,sans-Serif" font-weight="bold" font-size="10.00">Categoria</text>
<polygon fill="none" stroke="black" points="636,-51.5 636,-94.5 750,-94.5 750,-51.5 636,-51.5"/>
<text text-anchor="start" x="641" y="-81.5" font-family="Helvetica,sans-Serif" font-size="10.00">REUNIAO</text>
<text text-anchor="start" x="641" y="-70.5" font-family="Helvetica,sans-Serif" font-size="10.00">ANIVERSARIO</text>
<text text-anchor="start" x="641" y="-59.5" font-family="Helvetica,sans-Serif" font-size="10.00">COMPROMISSO</text>
<polygon fill="none" stroke="black" points="636,-19.5 636,-51.5 750,-51.5 750,-19.5 636,-19.5"/>
<text text-anchor="start" x="641" y="-38.5" font-family="Helvetica,sans-Serif" font-size="10.00">+ getRotulo() : String</text>
<text text-anchor="start" x="641" y="-27.5" font-family="Helvetica,sans-Serif" font-size="10.00">+ getCor() : Color</text>
</g>
<!-- Evento&#45;&gt;Categoria -->
<g id="edge17" class="edge">
<title>Evento&#45;&gt;Categoria</title>
<path fill="none" stroke="#444444" d="M652.66,-183.99C658.19,-168.85 663.92,-153.14 669.27,-138.49"/>
<polygon fill="#444444" stroke="#444444" points="672.73,-129.03 673.53,-139.96 671.01,-133.72 669.3,-138.42 669.3,-138.42 669.3,-138.42 671.01,-133.72 665.07,-136.88 672.73,-129.03 672.73,-129.03"/>
</g>
<!-- Antecedencia -->
<g id="node9" class="node">
<title>Antecedencia</title>
<polygon fill="none" stroke="black" points="291,-89.5 291,-119.5 428,-119.5 428,-89.5 291,-89.5"/>
<text text-anchor="start" x="322" y="-107.5" font-family="Helvetica,sans-Serif" font-style="italic" font-size="10.00">«enumeration»</text>
<text text-anchor="start" x="321.5" y="-97.5" font-family="Helvetica,sans-Serif" font-weight="bold" font-size="10.00">Antecedencia</text>
<polygon fill="none" stroke="black" points="291,-46.5 291,-89.5 428,-89.5 428,-46.5 291,-46.5"/>
<text text-anchor="start" x="296" y="-76.5" font-family="Helvetica,sans-Serif" font-size="10.00">UM_DIA</text>
<text text-anchor="start" x="296" y="-65.5" font-family="Helvetica,sans-Serif" font-size="10.00">TRES_DIAS</text>
<text text-anchor="start" x="296" y="-54.5" font-family="Helvetica,sans-Serif" font-size="10.00">UMA_SEMANA</text>
<polygon fill="none" stroke="black" points="291,-25.5 291,-46.5 428,-46.5 428,-25.5 291,-25.5"/>
<text text-anchor="start" x="296" y="-33.5" font-family="Helvetica,sans-Serif" font-size="10.00">+ getDuracao() : Duration</text>
</g>
<!-- Evento&#45;&gt;Antecedencia -->
<g id="edge18" class="edge">
<title>Evento&#45;&gt;Antecedencia</title>
<path fill="none" stroke="#444444" d="M513.92,-183.99C488.35,-165.75 461.63,-146.7 437.73,-129.65"/>
<polygon fill="#444444" stroke="#444444" points="429.4,-123.71 440.15,-125.85 433.47,-126.61 437.54,-129.52 437.54,-129.52 437.54,-129.52 433.47,-126.61 434.93,-133.18 429.4,-123.71 429.4,-123.71"/>
</g>
<!-- TituloVazioException -->
<g id="node11" class="node">
<title>TituloVazioException</title>
<polygon fill="none" stroke="black" points="1576,-671 1576,-692 1705,-692 1705,-671 1576,-671"/>
<text text-anchor="start" x="1581" y="-680" font-family="Helvetica,sans-Serif" font-weight="bold" font-size="10.00">TituloVazioException</text>
</g>
<!-- ValidacaoException&#45;&gt;TituloVazioException -->
<g id="edge7" class="edge">
<title>ValidacaoException&#45;&gt;TituloVazioException</title>
<path fill="none" stroke="black" d="M1499.82,-777.85C1535.66,-753.6 1585.11,-720.14 1614.68,-700.13"/>
<polygon fill="none" stroke="black" points="1497.8,-774.99 1491.48,-783.5 1501.72,-780.79 1497.8,-774.99"/>
</g>
<!-- DataInvalidaException -->
<g id="node12" class="node">
<title>DataInvalidaException</title>
<polygon fill="none" stroke="black" points="1753,-671 1753,-692 1891,-692 1891,-671 1753,-671"/>
<text text-anchor="start" x="1758" y="-680" font-family="Helvetica,sans-Serif" font-weight="bold" font-size="10.00">DataInvalidaException</text>
</g>
<!-- ValidacaoException&#45;&gt;DataInvalidaException -->
<g id="edge8" class="edge">
<title>ValidacaoException&#45;&gt;DataInvalidaException</title>
<path fill="none" stroke="black" d="M1551.62,-780.61C1604.39,-765.09 1670.82,-744.45 1729,-723 1747.63,-716.13 1767.94,-707.53 1784.81,-700.07"/>
<polygon fill="none" stroke="black" points="1550.55,-777.27 1541.93,-783.44 1552.51,-783.99 1550.55,-777.27"/>
</g>
<!-- HoraInvalidaException -->
<g id="node13" class="node">
<title>HoraInvalidaException</title>
<polygon fill="none" stroke="black" points="1198,-671 1198,-692 1337,-692 1337,-671 1198,-671"/>
<text text-anchor="start" x="1203" y="-680" font-family="Helvetica,sans-Serif" font-weight="bold" font-size="10.00">HoraInvalidaException</text>
</g>
<!-- ValidacaoException&#45;&gt;HoraInvalidaException -->
<g id="edge9" class="edge">
<title>ValidacaoException&#45;&gt;HoraInvalidaException</title>
<path fill="none" stroke="black" d="M1410.99,-777.85C1374.17,-753.6 1323.39,-720.14 1293.01,-700.13"/>
<polygon fill="none" stroke="black" points="1409.28,-780.92 1419.56,-783.5 1413.13,-775.07 1409.28,-780.92"/>
</g>
<!-- EmailInvalidoException -->
<g id="node14" class="node">
<title>EmailInvalidoException</title>
<polygon fill="none" stroke="black" points="1385,-671 1385,-692 1528,-692 1528,-671 1385,-671"/>
<text text-anchor="start" x="1390" y="-680" font-family="Helvetica,sans-Serif" font-weight="bold" font-size="10.00">EmailInvalidoException</text>
</g>
<!-- ValidacaoException&#45;&gt;EmailInvalidoException -->
<g id="edge10" class="edge">
<title>ValidacaoException&#45;&gt;EmailInvalidoException</title>
<path fill="none" stroke="black" d="M1456,-773.46C1456,-749.69 1456,-718.96 1456,-700.13"/>
<polygon fill="none" stroke="black" points="1452.5,-773.5 1456,-783.5 1459.5,-773.5 1452.5,-773.5"/>
</g>
<!-- RepositorioEventos -->
<g id="node15" class="node">
<title>RepositorioEventos</title>
<polygon fill="none" stroke="black" points="24,-264.5 24,-294.5 242,-294.5 242,-264.5 24,-264.5"/>
<text text-anchor="start" x="105" y="-282.5" font-family="Helvetica,sans-Serif" font-style="italic" font-size="10.00">«interface»</text>
<text text-anchor="start" x="78" y="-272.5" font-family="Helvetica,sans-Serif" font-weight="bold" font-size="10.00">RepositorioEventos</text>
<polygon fill="none" stroke="black" points="24,-232.5 24,-264.5 242,-264.5 242,-232.5 24,-232.5"/>
<text text-anchor="start" x="29" y="-251.5" font-family="Helvetica,sans-Serif" font-size="10.00">+ salvar(eventos : Vector&lt;Evento&gt;) : void</text>
<text text-anchor="start" x="29" y="-240.5" font-family="Helvetica,sans-Serif" font-size="10.00">+ carregar() : Vector&lt;Evento&gt;</text>
</g>
<!-- RepositorioEventosCSV -->
<g id="node16" class="node">
<title>RepositorioEventosCSV</title>
<polygon fill="none" stroke="black" points="24,-88.5 24,-109.5 242,-109.5 242,-88.5 24,-88.5"/>
<text text-anchor="start" x="66.5" y="-97.5" font-family="Helvetica,sans-Serif" font-weight="bold" font-size="10.00">RepositorioEventosCSV</text>
<polygon fill="none" stroke="black" points="24,-67.5 24,-88.5 242,-88.5 242,-67.5 24,-67.5"/>
<text text-anchor="start" x="29" y="-75.5" font-family="Helvetica,sans-Serif" font-size="10.00">&#45; arquivo : File</text>
<polygon fill="none" stroke="black" points="24,-35.5 24,-67.5 242,-67.5 242,-35.5 24,-35.5"/>
<text text-anchor="start" x="29" y="-54.5" font-family="Helvetica,sans-Serif" font-size="10.00">+ salvar(eventos : Vector&lt;Evento&gt;) : void</text>
<text text-anchor="start" x="29" y="-43.5" font-family="Helvetica,sans-Serif" font-size="10.00">+ carregar() : Vector&lt;Evento&gt;</text>
</g>
<!-- RepositorioEventos&#45;&gt;RepositorioEventosCSV -->
<g id="edge11" class="edge">
<title>RepositorioEventos&#45;&gt;RepositorioEventosCSV</title>
<path fill="none" stroke="black" stroke-dasharray="5,2" d="M133,-217.99C133,-186.38 133,-144.3 133,-113.7"/>
<polygon fill="none" stroke="black" points="129.5,-218.27 133,-228.27 136.5,-218.27 129.5,-218.27"/>
</g>
<!-- GerenciadorEventos -->
<g id="node17" class="node">
<title>GerenciadorEventos</title>
<polygon fill="none" stroke="black" points="498,-541 498,-562 750,-562 750,-541 498,-541"/>
<text text-anchor="start" x="566.5" y="-550" font-family="Helvetica,sans-Serif" font-weight="bold" font-size="10.00">GerenciadorEventos</text>
<polygon fill="none" stroke="black" points="498,-509 498,-541 750,-541 750,-509 498,-509"/>
<text text-anchor="start" x="503" y="-528" font-family="Helvetica,sans-Serif" font-size="10.00">&#45; eventos : Vector&lt;Evento&gt;</text>
<text text-anchor="start" x="503" y="-517" font-family="Helvetica,sans-Serif" font-size="10.00">&#45; repositorio : RepositorioEventos</text>
<polygon fill="none" stroke="black" points="498,-422 498,-509 750,-509 750,-422 498,-422"/>
<text text-anchor="start" x="503" y="-496" font-family="Helvetica,sans-Serif" font-size="10.00">+ adicionar(e : Evento) : void</text>
<text text-anchor="start" x="503" y="-485" font-family="Helvetica,sans-Serif" font-size="10.00">+ editar(antigo, novo : Evento) : void</text>
<text text-anchor="start" x="503" y="-474" font-family="Helvetica,sans-Serif" font-size="10.00">+ remover(e : Evento) : void</text>
<text text-anchor="start" x="503" y="-463" font-family="Helvetica,sans-Serif" font-size="10.00">+ buscarPorTexto(t : String) : Vector&lt;Evento&gt;</text>
<text text-anchor="start" x="503" y="-452" font-family="Helvetica,sans-Serif" font-size="10.00">+ eventosDoDia(d : LocalDate) : Vector&lt;Evento&gt;</text>
<text text-anchor="start" x="503" y="-441" font-family="Helvetica,sans-Serif" font-size="10.00">+ lembretesProximos() : Vector&lt;Evento&gt;</text>
<text text-anchor="start" x="503" y="-430" font-family="Helvetica,sans-Serif" font-size="10.00">+ salvar() : void</text>
</g>
<!-- GerenciadorEventos&#45;&gt;Evento -->
<g id="edge16" class="edge">
<title>GerenciadorEventos&#45;&gt;Evento</title>
<path fill="none" stroke="black" d="M624,-405.59C624,-385.16 624,-363.45 624,-343.34"/>
<polygon fill="none" stroke="black" points="624,-405.77 628,-411.77 624,-417.77 620,-411.77 624,-405.77"/>
<text text-anchor="middle" x="615.5" y="-346.14" font-family="Helvetica,sans-Serif" font-size="9.00">0..*</text>
</g>
<!-- GerenciadorEventos&#45;&gt;RepositorioEventos -->
<g id="edge19" class="edge">
<title>GerenciadorEventos&#45;&gt;RepositorioEventos</title>
<path fill="none" stroke="#444444" d="M489.97,-459.39C420.6,-439.97 336.01,-411.37 266,-373 232.73,-354.76 199.65,-327.83 174.81,-305.36"/>
<polygon fill="#444444" stroke="#444444" points="167.37,-298.54 177.78,-301.98 171.05,-301.92 174.74,-305.3 174.74,-305.3 174.74,-305.3 171.05,-301.92 171.7,-308.61 167.37,-298.54 167.37,-298.54"/>
<text text-anchor="middle" x="301" y="-383.8" font-family="Helvetica,sans-Serif" font-size="9.00">usa</text>
</g>
<!-- JanelaPrincipal&#45;&gt;GerenciadorEventos -->
<g id="edge20" class="edge">
<title>JanelaPrincipal&#45;&gt;GerenciadorEventos</title>
<path fill="none" stroke="#444444" d="M829.7,-777.95C802.44,-764.17 772.52,-745.72 750,-723 708.54,-681.16 676.8,-622.87 655.55,-575.44"/>
<polygon fill="#444444" stroke="#444444" points="651.44,-566.11 659.59,-573.44 653.46,-570.68 655.47,-575.26 655.47,-575.26 655.47,-575.26 653.46,-570.68 651.35,-577.07 651.44,-566.11 651.44,-566.11"/>
<text text-anchor="middle" x="758" y="-679.8" font-family="Helvetica,sans-Serif" font-size="9.00">usa</text>
</g>
<!-- JanelaPrincipal&#45;&gt;PainelCalendario -->
<g id="edge13" class="edge">
<title>JanelaPrincipal&#45;&gt;PainelCalendario</title>
<path fill="none" stroke="black" d="M884.82,-766.39C878.6,-750.59 871.57,-732.72 865.61,-717.59"/>
<polygon fill="black" stroke="black" points="884.99,-766.83 890.91,-770.95 889.39,-778 883.47,-773.88 884.99,-766.83"/>
</g>
<!-- JanelaPrincipal&#45;&gt;PainelEventosDia -->
<g id="edge14" class="edge">
<title>JanelaPrincipal&#45;&gt;PainelEventosDia</title>
<path fill="none" stroke="black" d="M947.14,-770.44C965.69,-755.54 987.13,-738.32 1006.04,-723.13"/>
<polygon fill="black" stroke="black" points="947.09,-770.48 944.92,-777.36 937.73,-778 939.91,-771.12 947.09,-770.48"/>
</g>
<!-- PainelCalendario&#45;&gt;GerenciadorEventos -->
<g id="edge21" class="edge">
<title>PainelCalendario&#45;&gt;GerenciadorEventos</title>
<path fill="none" stroke="#444444" d="M809.92,-646.3C784.77,-625.56 751.73,-598.32 720.49,-572.56"/>
<polygon fill="#444444" stroke="#444444" points="712.59,-566.05 723.17,-568.94 716.45,-569.23 720.31,-572.41 720.31,-572.41 720.31,-572.41 716.45,-569.23 717.44,-575.88 712.59,-566.05 712.59,-566.05"/>
<text text-anchor="middle" x="773" y="-606.8" font-family="Helvetica,sans-Serif" font-size="9.00">usa</text>
</g>
<!-- PainelEventosDia&#45;&gt;GerenciadorEventos -->
<g id="edge22" class="edge">
<title>PainelEventosDia&#45;&gt;GerenciadorEventos</title>
<path fill="none" stroke="#444444" d="M954.45,-646.07C948.9,-644.32 943.39,-642.62 938,-641 919.08,-635.33 783.86,-604.44 766,-596 751.52,-589.15 737,-580.77 723.06,-571.78"/>
<polygon fill="#444444" stroke="#444444" points="714.47,-566.11 725.29,-567.86 718.64,-568.86 722.81,-571.62 722.81,-571.62 722.81,-571.62 718.64,-568.86 720.34,-575.37 714.47,-566.11 714.47,-566.11"/>
<text text-anchor="middle" x="836" y="-606.8" font-family="Helvetica,sans-Serif" font-size="9.00">usa</text>
</g>
<!-- PainelEventosDia&#45;&gt;DialogoEvento -->
<g id="edge23" class="edge">
<title>PainelEventosDia&#45;&gt;DialogoEvento</title>
<path fill="none" stroke="#444444" stroke-dasharray="5,2" d="M1056.86,-640.67C1057.58,-606.94 1058.59,-559.34 1059.27,-527.38"/>
<polygon fill="#444444" stroke="#444444" points="1059.49,-517.19 1063.77,-527.28 1059.38,-522.19 1059.27,-527.19 1059.27,-527.19 1059.27,-527.19 1059.38,-522.19 1054.77,-527.09 1059.49,-517.19 1059.49,-517.19"/>
<text text-anchor="middle" x="1067.5" y="-606.8" font-family="Helvetica,sans-Serif" font-size="9.00">abre</text>
</g>
<!-- DialogoEvento&#45;&gt;Evento -->
<g id="edge24" class="edge">
<title>DialogoEvento&#45;&gt;Evento</title>
<path fill="none" stroke="#444444" stroke-dasharray="5,2" d="M984.33,-466.99C923.38,-446.17 836.52,-413.1 766,-373 753.4,-365.83 740.67,-357.67 728.28,-349.11"/>
<polygon fill="#444444" stroke="#444444" points="719.76,-343.13 730.53,-345.19 723.85,-346 727.94,-348.88 727.94,-348.88 727.94,-348.88 723.85,-346 725.36,-352.56 719.76,-343.13 719.76,-343.13"/>
<text text-anchor="middle" x="804.5" y="-383.8" font-family="Helvetica,sans-Serif" font-size="9.00">cria</text>
</g>
<!-- DialogoEvento&#45;&gt;IntField -->
<g id="edge15" class="edge">
<title>DialogoEvento&#45;&gt;IntField</title>
<path fill="none" stroke="black" d="M1064.31,-454.83C1069.87,-408.19 1079.38,-328.38 1084.13,-288.57"/>
<polygon fill="black" stroke="black" points="1064.31,-454.84 1067.57,-461.28 1062.89,-466.76 1059.63,-460.33 1064.31,-454.84"/>
</g>
</g>
</svg>
